<svg width="100" height="100" viewBox="0 0 100 100" fill="none" xmlns="http://www.w3.org/2000/svg">
<g clip-path="url(#clip0_205_32)">
<g clip-path="url(#clip1_205_32)">
<rect x="0.5" y="0.5" width="100" height="100" rx="10" fill="#7E22CE"/>
<path d="M74.4426 63.2434L64.8699 50.9342H68.4857C69.0099 50.9342 69.5237 50.7875 69.9688 50.5105C70.4139 50.2335 70.7725 49.8374 71.004 49.3671C71.2355 48.8967 71.3307 48.371 71.2787 47.8493C71.2267 47.3277 71.0297 46.831 70.7099 46.4156L51.9994 22.0919C51.7372 21.7521 51.4005 21.477 51.0153 21.2877C50.6302 21.0984 50.2067 21 49.7775 21C49.3483 21 48.9249 21.0984 48.5397 21.2877C48.1545 21.477 47.8178 21.7521 47.5556 22.0919L28.8451 46.4156C28.5256 46.8307 28.3286 47.3269 28.2764 47.8482C28.2243 48.3694 28.319 48.8948 28.55 49.365C28.7809 49.8352 29.1388 50.2313 29.5833 50.5086C30.0277 50.786 30.5408 50.9334 31.0646 50.9342H34.6805L25.1077 63.2434C24.785 63.6581 24.5851 64.155 24.531 64.6777C24.4768 65.2004 24.5704 65.7277 24.8012 66.1998C25.032 66.6719 25.3907 67.0697 25.8364 67.3479C26.2822 67.6262 26.7971 67.7737 27.3225 67.7737H46.9686V76.1934C46.9686 76.9378 47.2643 77.6516 47.7906 78.178C48.3169 78.7043 49.0308 79 49.7752 79C50.5195 79 51.2334 78.7043 51.7597 78.178C52.286 77.6516 52.5817 76.9378 52.5817 76.1934V67.7737H72.2278C72.7532 67.7737 73.2682 67.6262 73.7139 67.3479C74.1597 67.0697 74.5183 66.6719 74.7491 66.1998C74.9799 65.7277 75.0736 65.2004 75.0194 64.6777C74.9652 64.155 74.7654 63.6581 74.4426 63.2434ZM33.062 62.1605L42.6348 49.8513C42.9575 49.4366 43.1573 48.9397 43.2115 48.417C43.2657 47.8944 43.172 47.367 42.9413 46.8949C42.7105 46.4228 42.3518 46.025 41.906 45.7468C41.4603 45.4686 40.9454 45.321 40.4199 45.321H36.7643L49.7752 28.4067L62.786 45.321H59.1304C58.605 45.321 58.09 45.4686 57.6443 45.7468C57.1986 46.025 56.8399 46.4228 56.6091 46.8949C56.3783 47.367 56.2846 47.8944 56.3388 48.417C56.393 48.9397 56.5928 49.4366 56.9156 49.8513L66.4883 62.1605H33.062Z" fill="white"/>
</g>
<path d="M80.825 84L82.3 82.525C82.5 82.325 82.6 82.0917 82.6 81.825C82.6 81.5583 82.5 81.325 82.3 81.125C82.1 80.925 81.8627 80.825 81.588 80.825C81.3127 80.825 81.075 80.925 80.875 81.125L78.7 83.3C78.6 83.4 78.5293 83.5083 78.488 83.625C78.446 83.7417 78.425 83.8667 78.425 84C78.425 84.1333 78.446 84.2583 78.488 84.375C78.5293 84.4917 78.6 84.6 78.7 84.7L80.875 86.875C81.075 87.075 81.3127 87.175 81.588 87.175C81.8627 87.175 82.1 87.075 82.3 86.875C82.5 86.675 82.6 86.4417 82.6 86.175C82.6 85.9083 82.5 85.675 82.3 85.475L80.825 84ZM87.175 84L85.7 85.475C85.5 85.675 85.4 85.9083 85.4 86.175C85.4 86.4417 85.5 86.675 85.7 86.875C85.9 87.075 86.1377 87.175 86.413 87.175C86.6877 87.175 86.925 87.075 87.125 86.875L89.3 84.7C89.4 84.6 89.4707 84.4917 89.512 84.375C89.554 84.2583 89.575 84.1333 89.575 84C89.575 83.8667 89.554 83.7417 89.512 83.625C89.4707 83.5083 89.4 83.4 89.3 83.3L87.125 81.125C87.025 81.025 86.9127 80.95 86.788 80.9C86.6627 80.85 86.5377 80.825 86.413 80.825C86.2877 80.825 86.1627 80.85 86.038 80.9C85.9127 80.95 85.8 81.025 85.7 81.125C85.5 81.325 85.4 81.5583 85.4 81.825C85.4 82.0917 85.5 82.325 85.7 82.525L87.175 84ZM77 93C76.45 93 75.979 92.8043 75.587 92.413C75.1957 92.021 75 91.55 75 91V77C75 76.45 75.1957 75.979 75.587 75.587C75.979 75.1957 76.45 75 77 75H91C91.55 75 92.021 75.1957 92.413 75.587C92.8043 75.979 93 76.45 93 77V91C93 91.55 92.8043 92.021 92.413 92.413C92.021 92.8043 91.55 93 91 93H77Z" fill="#F5D0FE"/>
</g>
<defs>
<clipPath id="clip0_205_32">
<rect width="100" height="100" fill="white"/>
</clipPath>
<clipPath id="clip1_205_32">
<rect width="100" height="100" fill="white"/>
</clipPath>
</defs>
</svg>
