<svg width="100" height="100" viewBox="0 0 100 100" fill="none" xmlns="http://www.w3.org/2000/svg">
<g clip-path="url(#clip0_201_7)">
<g clip-path="url(#clip1_201_7)">
<rect x="0.5" y="0.5" width="100" height="100" rx="10" fill="#6F13EB"/>
<path d="M74.4425 63.2434L64.8697 50.9342H68.4856C69.0098 50.9342 69.5236 50.7875 69.9687 50.5105C70.4137 50.2335 70.7724 49.8374 71.0039 49.3671C71.2354 48.8967 71.3306 48.371 71.2786 47.8493C71.2266 47.3277 71.0296 46.831 70.7098 46.4156L51.9993 22.0919C51.737 21.7521 51.4004 21.477 51.0152 21.2877C50.63 21.0984 50.2066 21 49.7774 21C49.3482 21 48.9247 21.0984 48.5395 21.2877C48.1544 21.477 47.8177 21.7521 47.5555 22.0919L28.845 46.4156C28.5254 46.8307 28.3285 47.3269 28.2763 47.8482C28.2241 48.3694 28.3189 48.8948 28.5498 49.365C28.7808 49.8352 29.1387 50.2313 29.5831 50.5086C30.0275 50.786 30.5407 50.9334 31.0645 50.9342H34.6803L25.1076 63.2434C24.7848 63.6581 24.585 64.155 24.5308 64.6777C24.4766 65.2004 24.5703 65.7277 24.8011 66.1998C25.0319 66.6719 25.3906 67.0697 25.8363 67.3479C26.282 67.6262 26.797 67.7737 27.3224 67.7737H46.9685V76.1934C46.9685 76.9378 47.2642 77.6516 47.7905 78.178C48.3168 78.7043 49.0307 79 49.775 79C50.5194 79 51.2333 78.7043 51.7596 78.178C52.2859 77.6516 52.5816 76.9378 52.5816 76.1934V67.7737H72.2277C72.7531 67.7737 73.268 67.6262 73.7138 67.3479C74.1595 67.0697 74.5182 66.6719 74.749 66.1998C74.9798 65.7277 75.0734 65.2004 75.0193 64.6777C74.9651 64.155 74.7652 63.6581 74.4425 63.2434ZM33.0619 62.1605L42.6346 49.8513C42.9574 49.4366 43.1572 48.9397 43.2114 48.417C43.2656 47.8944 43.1719 47.367 42.9411 46.8949C42.7103 46.4228 42.3517 46.025 41.9059 45.7468C41.4602 45.4686 40.9452 45.321 40.4198 45.321H36.7642L49.775 28.4067L62.7859 45.321H59.1303C58.6048 45.321 58.0899 45.4686 57.6442 45.7468C57.1984 46.025 56.8397 46.4228 56.609 46.8949C56.3782 47.367 56.2845 47.8944 56.3387 48.417C56.3929 48.9397 56.5927 49.4366 56.9154 49.8513L66.4882 62.1605H33.0619Z" fill="white"/>
</g>
<path d="M80.825 84L82.3 82.525C82.5 82.325 82.6 82.0917 82.6 81.825C82.6 81.5583 82.5 81.325 82.3 81.125C82.1 80.925 81.8627 80.825 81.588 80.825C81.3127 80.825 81.075 80.925 80.875 81.125L78.7 83.3C78.6 83.4 78.5293 83.5083 78.488 83.625C78.446 83.7417 78.425 83.8667 78.425 84C78.425 84.1333 78.446 84.2583 78.488 84.375C78.5293 84.4917 78.6 84.6 78.7 84.7L80.875 86.875C81.075 87.075 81.3127 87.175 81.588 87.175C81.8627 87.175 82.1 87.075 82.3 86.875C82.5 86.675 82.6 86.4417 82.6 86.175C82.6 85.9083 82.5 85.675 82.3 85.475L80.825 84ZM87.175 84L85.7 85.475C85.5 85.675 85.4 85.9083 85.4 86.175C85.4 86.4417 85.5 86.675 85.7 86.875C85.9 87.075 86.1377 87.175 86.413 87.175C86.6877 87.175 86.925 87.075 87.125 86.875L89.3 84.7C89.4 84.6 89.4707 84.4917 89.512 84.375C89.554 84.2583 89.575 84.1333 89.575 84C89.575 83.8667 89.554 83.7417 89.512 83.625C89.4707 83.5083 89.4 83.4 89.3 83.3L87.125 81.125C87.025 81.025 86.9127 80.95 86.788 80.9C86.6627 80.85 86.5377 80.825 86.413 80.825C86.2877 80.825 86.1627 80.85 86.038 80.9C85.9127 80.95 85.8 81.025 85.7 81.125C85.5 81.325 85.4 81.5583 85.4 81.825C85.4 82.0917 85.5 82.325 85.7 82.525L87.175 84ZM77 93C76.45 93 75.979 92.8043 75.587 92.413C75.1957 92.021 75 91.55 75 91V77C75 76.45 75.1957 75.979 75.587 75.587C75.979 75.1957 76.45 75 77 75H91C91.55 75 92.021 75.1957 92.413 75.587C92.8043 75.979 93 76.45 93 77V91C93 91.55 92.8043 92.021 92.413 92.413C92.021 92.8043 91.55 93 91 93H77Z" fill="#2D085E"/>
</g>
<defs>
<clipPath id="clip0_201_7">
<rect width="100" height="100" fill="white"/>
</clipPath>
<clipPath id="clip1_201_7">
<rect width="100" height="100" fill="white"/>
</clipPath>
</defs>
</svg>
